<svg xmlns="http://www.w3.org/2000/svg" viewBox="288 160 448 448" width="512" height="512"><path transform="translate(0,768) scale(0.1,-0.1)" d="M5059 5751 c-93 -30 -117 -61 -228 -285 -158 -319 -317 -543 -555
-782 -255 -255 -523 -440 -866 -597 -113 -52 -151 -81 -181 -139 -44 -87 -33
-186 29 -258 28 -33 68 -57 196 -119 336 -161 579 -332 826 -580 236 -237 396
-462 552 -778 80 -163 108 -210 140 -237 83 -71 213 -71 296 0 32 27 60 74
140 237 156 314 317 542 552 778 246 247 485 416 816 575 137 66 178 91 206
124 78 91 74 223 -10 313 -14 15 -116 72 -226 126 -319 158 -544 317 -782 555
-236 236 -397 463 -552 775 -105 212 -125 242 -185 272 -44 23 -128 33 -168
20z" fill="#FFFFFF"/></svg>