<svg width="448" height="448" viewBox="288 160 448 448" fill="none" xmlns="http://www.w3.org/2000/svg">
  <defs>
    <radialGradient id="dome" cx="0.5" cy="0.28" r="0.5">
      <stop offset="0" stop-color="#ffc2bb" />
      <stop offset="0.32" stop-color="#ff3b2c" />
      <stop offset="0.75" stop-color="#df1610" />
      <stop offset="1" stop-color="#a80d08" />
    </radialGradient>
    <linearGradient id="tail" x1="0" y1="384" x2="0" y2="578" gradientUnits="userSpaceOnUse">
      <stop offset="0" stop-color="#9c0c09" />
      <stop offset="0.30" stop-color="#cc0f0c" />
      <stop offset="1" stop-color="#ff6f64" />
    </linearGradient>
    <clipPath id="star">
      <path transform="translate(0,768) scale(0.1,-0.1)" d="M5059 5751 c-93 -30 -117 -61 -228 -285 -158 -319 -317 -543 -555 -782 -255 -255 -523 -440 -866 -597 -113 -52 -151 -81 -181 -139 -44 -87 -33 -186 29 -258 28 -33 68 -57 196 -119 336 -161 579 -332 826 -580 236 -237 396 -462 552 -778 80 -163 108 -210 140 -237 83 -71 213 -71 296 0 32 27 60 74 140 237 156 314 317 542 552 778 246 247 485 416 816 575 137 66 178 91 206 124 78 91 74 223 -10 313 -14 15 -116 72 -226 126 -319 158 -544 317 -782 555 -236 236 -397 463 -552 775 -105 212 -125 242 -185 272 -44 23 -128 33 -168 20z" />
    </clipPath>
  </defs>
  <g clip-path="url(#star)">
    <rect x="288" y="160" width="448" height="448" fill="url(#dome)" />
    <path d="M296 374 Q512 450 728 374 L728 624 L296 624 Z" fill="url(#tail)" />
    <path d="M322 384 Q512 436 702 384" stroke="#5e0a0a" stroke-width="4" fill="none" opacity="0.45" />
    <path d="M330 380 Q512 426 694 380" stroke="#ffe2de" stroke-width="3" fill="none" opacity="0.55" />
  </g>
</svg>
